<?xml version="1.0" standalone="no"?><!DOCTYPE svg PUBLIC "-//W3C//DTD SVG 1.1//EN" "http://www.w3.org/Graphics/SVG/1.1/DTD/svg11.dtd"><svg t="1713942483590" class="icon" viewBox="0 0 1024 1024" version="1.1" xmlns="http://www.w3.org/2000/svg" p-id="18091" data-darkreader-inline-fill="" xmlns:xlink="http://www.w3.org/1999/xlink" width="200" height="200"><path d="M896.512 945.152H129.536c-16.896 0-30.72-13.824-30.72-30.72s13.824-30.72 30.72-30.72h766.72c16.896 0 30.72 13.824 30.72 30.72s-13.568 30.72-30.464 30.72zM251.904 816.128H191.488c-39.424 0-71.68-32.256-71.68-71.68V283.136c0-39.424 32.256-71.68 71.68-71.68h60.416c39.424 0 71.68 32.256 71.68 71.68v461.312c0 39.424-32 71.68-71.68 71.68zM191.488 272.896c-5.632 0-10.24 4.608-10.24 10.24v461.312c0 5.632 4.608 10.24 10.24 10.24h60.416c5.632 0 10.24-4.608 10.24-10.24V283.136c0-5.632-4.608-10.24-10.24-10.24H191.488zM546.304 816.128h-60.416c-39.424 0-71.68-32.256-71.68-71.68V444.416c0-39.424 32.256-71.68 71.68-71.68h60.416c39.424 0 71.68 32.256 71.68 71.68v300.032c0 39.424-32.256 71.68-71.68 71.68z m-60.416-381.952c-5.632 0-10.24 4.608-10.24 10.24v300.032c0 5.632 4.608 10.24 10.24 10.24h60.416c5.632 0 10.24-4.608 10.24-10.24V444.416c0-5.632-4.608-10.24-10.24-10.24h-60.416zM840.448 816.128h-60.416c-39.424 0-71.68-32.256-71.68-71.68V142.336c0-39.424 32.256-71.68 71.68-71.68h60.416c39.424 0 71.68 32.256 71.68 71.68v602.112c0 39.424-32 71.68-71.68 71.68zM780.032 132.096c-5.632 0-10.24 4.608-10.24 10.24v602.112c0 5.632 4.608 10.24 10.24 10.24h60.416c5.632 0 10.24-4.608 10.24-10.24V142.336c0-5.632-4.608-10.24-10.24-10.24h-60.416z" fill="#8a8a8a" p-id="18092" data-darkreader-inline-fill="" style="--darkreader-inline-fill: #5a6265;"></path></svg>