<?xml version="1.0" standalone="no"?><!DOCTYPE svg PUBLIC "-//W3C//DTD SVG 1.1//EN" "http://www.w3.org/Graphics/SVG/1.1/DTD/svg11.dtd"><svg t="1713943452079" class="icon" viewBox="0 0 1024 1024" version="1.1" xmlns="http://www.w3.org/2000/svg" p-id="1954" data-darkreader-inline-fill="" xmlns:xlink="http://www.w3.org/1999/xlink" width="200" height="200"><path d="M420.096 29.056a494.826667 494.826667 0 0 1 174.144 0l2.986667 0.554667a35.093333 35.093333 0 0 1 28.245333 28.16l17.194667 93.077333a385.962667 385.962667 0 0 1 109.205333 63.104l89.045333-31.658667a35.2 35.2 0 0 1 38.442667 10.389334l1.962667 2.304a486.037333 486.037333 0 0 1 87.296 151.04l0.981333 2.858666a35.072 35.072 0 0 1-10.176 38.549334l-71.744 61.333333a393.877333 393.877333 0 0 1 0 126.613333l71.744 61.354667c11.050667 9.514667 15.104 24.853333 10.176 38.336l-0.981333 2.837333a488.533333 488.533333 0 0 1-87.296 151.04l-1.962667 2.304a35.050667 35.050667 0 0 1-38.442667 10.410667l-89.045333-31.658667a383.36 383.36 0 0 1-109.226667 63.082667l-17.173333 93.098667a35.093333 35.093333 0 0 1-28.266667 28.16l-2.965333 0.533333a491.306667 491.306667 0 0 1-174.144 0l-2.965333-0.533333a35.093333 35.093333 0 0 1-28.245334-28.16l-17.301333-93.525334a382.784 382.784 0 0 1-108.437333-62.869333L173.44 841.664a35.2 35.2 0 0 1-38.442667-10.410667l-1.984-2.304a487.274667 487.274667 0 0 1-87.296-151.04l-0.981333-2.837333a35.072 35.072 0 0 1 10.197333-38.570667l72.618667-61.994666c-3.413333-20.48-5.056-41.514667-5.056-62.528 0-20.906667 1.642667-41.962667 5.056-62.549334l-72.618667-61.994666a35.178667 35.178667 0 0 1-10.197333-38.549334l0.981333-2.858666a488.533333 488.533333 0 0 1 87.296-151.04l1.984-2.304a35.050667 35.050667 0 0 1 38.442667-10.389334l89.706667 31.872a385.386667 385.386667 0 0 1 108.437333-62.869333l17.28-93.546667a35.093333 35.093333 0 0 1 28.266667-28.16zM512 320c-51.264 0-99.413333 19.882667-135.765333 56.234667A191.317333 191.317333 0 0 0 320 512c0 51.264 20.053333 99.413333 56.234667 135.765333A191.317333 191.317333 0 0 0 512 704c51.264 0 99.413333-20.053333 135.765333-56.234667A191.317333 191.317333 0 0 0 704 512c0-51.264-20.053333-99.413333-56.234667-135.765333A190.613333 190.613333 0 0 0 512 320z" p-id="1955" fill="#8a8a8a" data-darkreader-inline-fill="" style="--darkreader-inline-fill: #5a6265;"></path></svg>