<?xml version="1.0" standalone="no"?><!DOCTYPE svg PUBLIC "-//W3C//DTD SVG 1.1//EN" "http://www.w3.org/Graphics/SVG/1.1/DTD/svg11.dtd"><svg t="1713943460984" class="icon" viewBox="0 0 1024 1024" version="1.1" xmlns="http://www.w3.org/2000/svg" p-id="2338" data-darkreader-inline-fill="" xmlns:xlink="http://www.w3.org/1999/xlink" width="200" height="200"><path d="M959.424 636.736L887.68 575.36a393.877333 393.877333 0 0 0 0-126.613333l71.744-61.333334c11.050667-9.408 15.104-24.746667 10.176-38.549333l-0.981333-2.858667a486.037333 486.037333 0 0 0-87.296-151.04l-1.962667-2.304a35.2 35.2 0 0 0-38.442667-10.389333l-89.045333 31.658667a385.962667 385.962667 0 0 0-109.226667-63.104l-17.173333-93.098667a35.093333 35.093333 0 0 0-28.266667-28.16l-2.965333-0.533333a494.826667 494.826667 0 0 0-174.144 0l-2.965333 0.554666a35.093333 35.093333 0 0 0-28.245334 28.16l-17.301333 93.525334a385.386667 385.386667 0 0 0-108.437333 62.869333L173.44 182.293333a35.050667 35.050667 0 0 0-38.442667 10.389334l-1.984 2.304a488.533333 488.533333 0 0 0-87.296 151.04l-0.981333 2.858666a35.178667 35.178667 0 0 0 10.197333 38.549334l72.618667 61.994666c-3.413333 20.586667-5.056 41.621333-5.056 62.549334 0 21.013333 1.642667 42.048 5.056 62.528l-72.618667 61.994666a35.072 35.072 0 0 0-10.197333 38.570667l0.981333 2.837333a487.274667 487.274667 0 0 0 87.296 151.04l1.984 2.304a35.2 35.2 0 0 0 38.442667 10.410667l89.706667-31.872a382.784 382.784 0 0 0 108.437333 62.869333l17.28 93.525334a35.093333 35.093333 0 0 0 28.266667 28.16l2.965333 0.533333a492.224 492.224 0 0 0 174.144 0l2.986667-0.533333a35.093333 35.093333 0 0 0 28.245333-28.16l17.194667-93.098667a383.36 383.36 0 0 0 109.205333-63.082667l89.045333 31.658667c13.674667 4.821333 29.013333 0.768 38.442667-10.410667l1.962667-2.304a488.533333 488.533333 0 0 0 87.296-151.04l0.981333-2.837333a34.944 34.944 0 0 0-10.176-38.336z m-149.504-175.04a309.973333 309.973333 0 0 1 0 100.992l-7.253333 43.925333 81.834666 69.973334a405.290667 405.290667 0 0 1-46.656 80.64l-101.653333-36.053334-34.389333 28.266667a306.090667 306.090667 0 0 1-86.848 50.154667l-41.728 15.658666-19.626667 106.24a413.482667 413.482667 0 0 1-93.077333 0l-19.626667-106.453333-41.386667-15.872a306.432 306.432 0 0 1-86.186666-50.069333l-34.410667-28.373334-102.293333 36.373334a413.866667 413.866667 0 0 1-46.656-80.618667L212.650667 605.866667l-7.125334-43.818667a315.370667 315.370667 0 0 1-4.053333-49.834667c0-16.768 1.322667-33.514667 4.053333-49.834666l7.125334-43.818667-82.688-70.634667a405.290667 405.290667 0 0 1 46.656-80.64l102.293333 36.373334 34.389333-28.373334a306.432 306.432 0 0 1 86.186667-50.048l41.536-15.658666 19.605333-106.453334a413.482667 413.482667 0 0 1 93.098667 0l19.605333 106.24 41.728 15.658667a307.584 307.584 0 0 1 86.848 50.176l34.410667 28.245333 101.632-36.032a413.866667 413.866667 0 0 1 46.656 80.618667l-81.813333 69.973333 7.125333 43.733334z" fill="#8a8a8a" p-id="2339" data-darkreader-inline-fill="" style="--darkreader-inline-fill: #5a6265;"></path><path d="M507.285333 308.48a192.768 192.768 0 1 0 0 385.536 192.768 192.768 0 0 0 0-385.557333z m86.741334 279.509333a122.24 122.24 0 0 1-86.741334 35.925334 122.24 122.24 0 0 1-86.741333-35.925334 122.24 122.24 0 0 1-35.925333-86.741333c0-32.768 12.8-63.530667 35.925333-86.762667a121.792 121.792 0 0 1 86.741333-35.925333c32.746667 0 63.530667 12.714667 86.741334 35.925333a122.24 122.24 0 0 1 35.925333 86.762667 122.24 122.24 0 0 1-35.925333 86.741333z" fill="#8a8a8a" p-id="2340" data-darkreader-inline-fill="" style="--darkreader-inline-fill: #5a6265;"></path></svg>